<svg width="171" height="95" xmlns="http://www.w3.org/2000/svg">
 <g>
  <g stroke="null" id="svg_38">
   <g id="svg_73">
    <g stroke="null" id="svg_74">
     <path stroke="null" id="svg_39" d="m167.139587,33.711052c-0.988434,-1.779865 -2.965988,-2.867243 -5.240067,-2.867243l-17.005356,0c-9.095795,-17.203304 -31.934349,-29.462898 -58.728004,-29.462898c-26.793003,0 -49.632191,12.259594 -58.728004,29.462898l-3.559124,0c-3.065374,0 -6.426682,1.878313 -8.008279,4.448999l-11.666477,18.587223c-1.186903,1.977543 -1.384721,4.152435 -0.395635,5.932323c0.988459,1.779552 2.966318,2.867241 5.24011,2.867241l17.696897,0c8.602047,17.895187 31.934982,30.747925 59.420513,30.747925c27.386787,0 50.719749,-12.852737 59.420219,-30.747925l1.58223,0c3.064407,0 6.426025,-1.878647 8.008255,-4.44931l11.666504,-18.587242c1.185959,-1.977547 1.285324,-4.15242 0.296219,-5.931992z" fill="#FFFFFF"/>
     <path stroke="null" id="svg_40" d="m168.820236,33.414494c-0.988434,-1.878784 -2.965973,-2.966476 -5.338501,-2.966476l-17.40097,0c-9.293289,-17.598605 -32.626572,-30.055879 -59.914604,-30.055879c-27.386768,0 -50.720039,12.457274 -59.914261,30.055879l-3.559145,0c-3.065374,0 -6.525757,1.878803 -8.206723,4.548389l-11.962722,18.9827c-1.285332,1.977386 -1.384407,4.251179 -0.39532,6.129807c0.988459,1.878471 2.966004,2.966141 5.338536,2.966141l18.093159,0c8.799549,18.290508 32.626568,31.341236 60.606476,31.341236c27.979599,0 51.807243,-13.050728 60.606499,-31.341236l1.581909,0c3.064728,0 6.525436,-1.878468 8.2061,-4.548367l11.963348,-18.982384c1.186279,-2.076447 1.285324,-4.350239 0.296219,-6.12981zm-2.174713,4.943218l-11.963348,18.982857c-1.285339,1.977234 -4.053528,3.559143 -6.426697,3.559143l-2.965988,0c-8.008255,18.192062 -31.539032,31.341705 -59.222069,31.341705c-19.872887,0 -38.757004,-7.019836 -50.422836,-18.686317c-3.955091,-3.954918 -6.921078,-8.206253 -8.898937,-12.655388l-19.476939,0c-1.581597,0 -2.866929,-0.691898 -3.460067,-1.878315c-0.692193,-1.186588 -0.494376,-2.570683 0.296246,-3.954933l11.963369,-18.982857c1.285332,-1.977234 4.053835,-3.559124 6.426682,-3.559124l4.844477,0c1.976898,-4.053677 4.745398,-7.90938 8.30517,-11.468819c11.665833,-11.666477 30.54995,-18.686295 50.422836,-18.686295s38.756668,7.019818 50.423164,18.686295c3.559113,3.559439 6.327301,7.415142 8.30484,11.468819l18.68631,0c1.581558,0 2.866898,0.692036 3.460052,1.878471c0.692215,1.186413 0.593796,2.570663 -0.296265,3.954758z" fill="#003768"/>
     <g stroke="null" transform="matrix(0.9886877286079292,0,0,0.9886877286079292,-5746.932951778019,-3952.9758384999604) " id="svg_53">
      <path stroke="null" id="svg_41" d="m5921.338867,4074.796631l4.5,-1.700195c0.899902,-0.399902 1,-1.099609 0.099609,-1.599609c0,0 -1.299805,-0.700195 -3.299805,0.099609c-1.899902,0.800293 -2.399902,2 -2.399902,2c-0.399902,1 0.100098,1.600098 1.100098,1.200195z" fill="#CD152D"/>
      <path stroke="null" id="svg_42" d="m5903.838867,4077.096436l4,-0.199707c0.799805,-0.100098 1,-0.600098 0.5,-1.200195c0,0 -0.900391,-0.899902 -2.700195,-0.699707c-1.700195,0.099609 -2.399902,1 -2.399902,1c-0.5,0.599609 -0.200195,1.099609 0.600098,1.099609z" fill="#CD152D"/>
      <path stroke="null" id="svg_43" d="m5912.638672,4076.596436l4.399902,-0.699707c0.899902,-0.200195 1.100098,-0.800293 0.399902,-1.399902c0,0 -1,-0.900391 -3,-0.5c-1.899902,0.299805 -2.5,1.399902 -2.5,1.399902c-0.599609,0.699707 -0.299805,1.299805 0.700195,1.199707z" fill="#CD152D"/>
      <path stroke="null" id="svg_44" d="m5930.538574,4070.896729l4.5,-2.899902c0.899902,-0.600098 0.800293,-1.400391 -0.299805,-1.700195c0,0 -1.600098,-0.5 -3.600098,0.899902c-1.899902,1.300293 -2.100098,2.800293 -2.100098,2.800293c-0.100098,1 0.5,1.5 1.5,0.899902z" fill="#CD152D"/>
      <path stroke="null" id="svg_45" d="m5946.73877,4059.796631c-13.899902,17 -30.899902,19 -39.100098,19.299805c-8.200195,0.300293 -18.200195,-2.299805 -27.5,-4.5c-3,-0.699707 -6.100098,-1.099609 -9,-1.299805l2.299805,-7.899902c7.400391,1.299805 15.5,3.399902 28.300293,3.600098c18.5,0.299805 28.199707,-8.600098 28.600098,-9.100098l-88.100098,0c1.899902,4 4.600098,7.799805 8.100098,11.299805c11.399902,11.399902 29.899902,18.300293 49.5,18.300293c26.799805,0 49.5,-12.400391 57.599609,-29.600098l-10.699707,0l0,-0.100098zm-70.899902,0l6.899902,0l0,5.399902l-6.899902,-1.100098l0,-4.299805zm-7.600098,13.100098c-4.800293,-0.200195 -8.300293,0.100098 -8.300293,0.100098l2.600098,-8.800293c2.800293,-0.100098 5.399902,0.200195 8.100098,0.5l-2.399902,8.200195z" fill="#C31230"/>
      <path stroke="null" id="svg_46" d="m5912.638672,4014.296631c-0.899902,-0.100098 -1.299805,0.399902 -0.799805,1.200195c0,0 0.699707,1.099609 2.5,1.399902c1.899902,0.299805 3,-0.5 3,-0.5c0.699707,-0.600098 0.5,-1.200195 -0.400391,-1.399902l-4.299805,-0.700195z" fill="#CD152D"/>
      <path stroke="null" id="svg_47" d="m5903.838867,4013.796631c-0.800293,0 -1.100098,0.5 -0.600098,1.200195c0,0 0.699707,0.899902 2.399902,1c1.799805,0.199707 2.700195,-0.700195 2.700195,-0.700195c0.599609,-0.600098 0.399902,-1.200195 -0.5,-1.200195l-4,-0.299805z" fill="#CD152D"/>
      <path stroke="null" id="svg_48" d="m5935.038574,4022.896729l-4.5,-2.899902c-1,-0.600098 -1.600098,-0.100098 -1.5,1c0,0 0.200195,1.5 2.100098,2.799805c2,1.299805 3.600098,0.899902 3.600098,0.899902c1.100098,-0.399902 1.199707,-1.199707 0.299805,-1.799805z" fill="#CD152D"/>
      <path stroke="null" id="svg_49" d="m5921.338867,4016.096436c-1,-0.299805 -1.5,0.200195 -1.100098,1.200195c0,0 0.5,1.299805 2.399902,2c2,0.799805 3.299805,0.100098 3.299805,0.100098c0.900391,-0.5 0.800293,-1.200195 -0.099609,-1.600098l-4.5,-1.700195z" fill="#CD152D"/>
      <path stroke="null" id="svg_50" d="m5875.838867,4026.996826l6.899902,-1.100098l0,5.199707l47.5,0c0,0 -9.600098,-9.399902 -28.600098,-9.099609c-12.700195,0.199707 -20.899902,2.299805 -28.299805,3.599609l-2.300293,-7.899902c2.899902,-0.199707 6,-0.600098 9,-1.299805c9.399902,-2.300293 19.300293,-4.800293 27.5,-4.5c8.200195,0.299805 25.200195,2.299805 39.100098,19.299805l10,0c-1.799805,-3.5 -4.299805,-6.899902 -7.5,-10.100098c-11.399902,-11.399902 -29.899902,-18.299805 -49.5,-18.299805c-19.600098,0 -38,6.799805 -49.5,18.299805c-3.100098,3.100098 -5.600098,6.5 -7.5,10.100098l33,0l0,-4.199707l0.200195,0zm-13.300293,-0.400391l-2.600098,-8.799805c0,0 3.5,0.299805 8.300293,0.100098l2.399902,8.199707c-2.700195,0.300293 -5.299805,0.600098 -8.100098,0.5z" fill="#C31230"/>
      <rect stroke="null" height="0" id="svg_51" width="6.9" fill="#CD152D" y="4031.101224" x="5875.840011"/>
      <path stroke="null" id="svg_52" d="m5946.73877,4059.796631l-16.5,0c0,0 0,0 0,0l16.5,0c0,0 0,0 0,0z" fill="#CD152D"/>
     </g>
     <path stroke="null" id="svg_54" d="m163.481735,34.699825c1.680969,0 2.273773,1.186119 1.384079,2.57037l-11.962723,18.9827c-0.890015,1.384251 -2.966965,2.570686 -4.647614,2.570686l-140.788952,0c-1.680653,0 -2.273791,-1.186436 -1.384094,-2.570686l11.963684,-18.9827c0.889071,-1.384251 2.965986,-2.57037 4.646639,-2.57037l140.78898,0z" fill="#003768"/>
     <path stroke="null" id="svg_55" d="m25.856579,50.9142l5.536669,-9.195026l-3.362268,0l2.076937,-3.361462l11.864275,0c3.559143,0 5.635117,0.692036 6.821373,2.17503c1.285336,1.483013 1.977547,4.548229 0.593769,6.920921c-1.285332,2.076466 -2.472237,4.251335 -5.240738,5.63559c-3.064415,1.58189 -7.90889,1.186432 -11.567093,1.186432l-12.06209,0l2.076288,-3.361485l3.262878,0zm6.822002,-0.099056l2.471607,0c2.075974,0 3.064434,-0.098915 4.844475,-1.087376c1.482838,-0.791111 2.372849,-2.175343 3.16349,-3.361778c0.790955,-1.383938 0.49469,-2.471451 0,-3.262566c-0.395321,-0.593136 -1.087513,-0.988457 -2.372868,-1.186588l-2.768482,0l-5.338223,8.898308z" fill="#FFFFFF"/>
     <polygon stroke="null" id="svg_56" points="57.98843368887901,50.91419982910156 60.06472381949425,50.91419982910156 58.08782562613487,54.27568435668945 48.69513687491417,54.27568435668945 50.6726835668087,50.91419982910156 52.847083896398544,50.91419982910156 56.11027893424034,45.47644805908203 54.03398880362511,45.575191497802734 56.01088699698448,42.114967346191406 63.327602237463,42.114967346191406 " fill="#FFFFFF"/>
     <polygon stroke="null" id="svg_57" points="109.30129989981651,50.91419982910156 111.37758621573448,50.91419982910156 109.4006880223751,54.27568435668945 100.00800308585167,54.27568435668945 101.9855497777462,50.91419982910156 104.15995010733604,50.91419982910156 107.42314133048058,45.47644805908203 105.3468550145626,45.575191497802734 107.32375320792198,42.114967346191406 114.64046463370323,42.114967346191406 " fill="#FFFFFF"/>
     <polygon stroke="null" id="svg_58" points="92.59286484122276,44.88299560546875 99.21704849600792,41.719173431396484 103.27088150382042,41.818092346191406 101.29333481192589,44.982051849365234 99.21704849600792,44.982051849365234 93.58129867911339,47.65132141113281 95.75634750723839,50.5185661315918 98.82172378897667,50.61732864379883 96.84419998526573,53.97910690307617 91.30753311514854,53.97910690307617 88.24213394522667,49.33197784423828 85.86991867423058,53.97910690307617 78.25695785880089,53.97910690307617 80.23385605216026,50.61732864379883 82.31016525626183,50.61732864379883 87.94589218497276,41.3238525390625 85.77052292227745,41.3238525390625 87.84681686758995,37.9623908996582 95.06415542960167,37.9623908996582 90.3190687596798,45.97066879272461 " fill="#FFFFFF"/>
     <path stroke="null" id="svg_59" d="m136.292755,50.617329c-0.09906,0.296558 -0.09906,0.692352 0.49472,0.98893c0.691544,0.296402 1.086868,0.09874 1.482819,0.09874c0.790955,0 1.878494,-0.395317 2.174713,-0.98877c0.29689,-0.494221 0.099106,-0.691883 -1.285324,-0.889542l-0.1978,-0.098919c-2.372864,-0.494534 -5.832916,-1.186413 -4.053528,-4.152576c1.482819,-2.471767 5.338852,-3.757099 8.404221,-3.757099c1.28537,0 2.768188,0.494534 2.768188,0.494534l0.09874,-0.296871l4.152924,0l-2.373184,4.053658l-3.756622,0c0,0 0.395325,-0.691879 -0.29689,-1.087673c-0.49469,-0.296402 -1.087845,-0.197659 -1.384079,-0.197659c-0.692215,0 -1.58223,0.29689 -1.977539,0.791111c-0.296906,0.494221 0,0.691879 1.384064,0.889698c2.274445,0.395634 6.129807,1.087536 4.251328,4.152439c-1.581558,2.669582 -5.635391,3.954914 -8.799225,3.954914c-1.977539,0 -3.163498,-0.692211 -3.163498,-0.692211l-0.1978,0.395653l-4.251328,0l2.570038,-4.251339l4.251328,0l-0.296265,0.592983z" fill="#FFFFFF"/>
     <path stroke="null" id="svg_60" d="m129.272934,43.202168c-0.988449,-1.384075 -3.262886,-1.581734 -5.239761,-1.581734c-4.152931,0 -8.206429,3.064903 -9.294281,6.62434c-0.493744,1.779572 -0.197479,3.361485 0.98909,4.547897c1.087845,1.186436 2.866928,1.878471 4.943863,1.878471c6.129791,0 7.31575,-4.350235 7.31575,-4.350235l-3.559143,0l-0.197479,0.197659c-0.890015,0.791115 -1.680969,1.285332 -2.867561,1.186432c-2.768501,-0.09874 -1.383781,-2.965984 -1.383781,-2.965984l9.392044,0c0,0 0.494415,-1.285351 0.494415,-1.285351c0.1978,-1.186592 0.692169,-2.570667 -0.593155,-4.251495zm-8.700478,3.559616c0,0 1.285332,-2.471924 3.460716,-2.471924c2.768463,0 1.285332,2.471924 1.285332,2.471924l-4.746048,0z" fill="#FFFFFF"/>
     <path stroke="null" id="svg_61" d="m60.46067,40.829636c1.976921,0 3.855385,-0.692352 4.152283,-1.581913c0.296875,-0.890011 -1.087536,-1.582226 -3.065395,-1.582226c-1.976898,0 -3.85537,0.692215 -4.151947,1.582226c-0.296875,0.889561 1.087536,1.581913 3.06506,1.581913z" fill="#FFFFFF"/>
     <path stroke="null" id="svg_62" d="m111.674484,40.829636c1.977539,0 3.85601,-0.692352 4.15226,-1.581913c0.296875,-0.890011 -1.087204,-1.582226 -3.064751,-1.582226c-1.977547,0 -3.856018,0.692215 -4.152885,1.582226c-0.296265,0.889561 1.08783,1.581913 3.065376,1.581913z" fill="#FFFFFF"/>
     <path stroke="null" id="svg_63" d="m75.29097,53.187992l1.680656,-3.163647l-2.867561,0l-0.395317,0.592983c-0.89003,0.791111 -1.383781,1.186569 -2.570686,1.186569c-0.890007,0 -1.779083,0.098763 -2.175362,-1.087669c-0.197487,-0.59314 -0.197487,-1.384251 0.197815,-2.174873c0.791275,-1.680832 2.274445,-2.867245 3.955093,-3.263058c1.08783,-0.296246 1.878471,0.494556 2.175362,1.285667l0.098427,0.296558l2.867561,0l2.372536,-4.745869l-2.966301,0c0,0 0,0.791111 -0.296249,0.593292c-0.692207,-0.593292 -1.680672,-0.889854 -2.966003,-0.889854c-3.95507,0 -8.70047,1.087673 -10.678017,6.32745c-0.692196,1.779884 -0.395321,3.361797 0.593132,4.548229c1.186913,1.581913 2.570671,2.076134 4.251343,2.273792c4.943535,0.395477 6.723572,-1.779572 6.723572,-1.779572z" fill="#FFFFFF"/>
     <g stroke="null" transform="matrix(0.9886877286079292,0,0,0.9886877286079292,-5746.932951778019,-3952.9758384999604) " id="svg_70">
      <path stroke="null" id="svg_64" d="m5860.038574,4017.796631l2.600098,8.799805c2.799805,0.100098 5.399902,-0.199707 8.100098,-0.5l-2.399902,-8.199707c-4.800293,0.199707 -8.300293,-0.100098 -8.300293,-0.100098z" fill="#FFCE01"/>
      <polygon stroke="null" id="svg_65" points="5882.838874936104,4031.196533203125 5882.838874936104,4025.896728515625 5875.838874936104,4026.996826171875 5875.838874936104,4031.196533203125 " fill="#FFCE01"/>
      <path stroke="null" id="svg_66" d="m5907.638672,4011.796631c-8.200195,-0.299805 -18.200195,2.299805 -27.5,4.5c-3,0.700195 -6.100098,1.100098 -9,1.299805l2.299805,7.900391c7.400391,-1.300293 15.5,-3.400391 28.300293,-3.600098c19,-0.300293 28.600098,9.100098 28.600098,9.100098l16.5,0c-13.900391,-16.900391 -31,-18.900391 -39.200195,-19.200195zm0.700195,3.5c0,0 -0.900391,0.899902 -2.700195,0.700195c-1.700195,-0.100098 -2.399902,-1 -2.399902,-1c-0.5,-0.700195 -0.200195,-1.200195 0.600098,-1.200195l4,0.200195c0.899902,0.199707 1.099609,0.699707 0.5,1.299805zm9,1.100098c0,0 -1,0.899902 -3,0.5c-1.900391,-0.300293 -2.5,-1.399902 -2.5,-1.399902c-0.5,-0.800293 -0.100098,-1.300293 0.799805,-1.200195l4.399902,0.700195c0.800293,0.099609 1,0.799805 0.300293,1.399902zm8.599609,2.899902c0,0 -1.299805,0.700195 -3.299805,-0.100098c-1.899902,-0.799805 -2.399902,-2 -2.399902,-2c-0.399902,-1 0.100098,-1.5 1.100098,-1.199707l4.5,1.699707c1,0.399902 1,1.100098 0.099609,1.600098zm8.800293,5.299805c0,0 -1.600098,0.5 -3.600098,-0.899902c-1.899902,-1.299805 -2.100098,-2.799805 -2.100098,-2.799805c-0.199707,-1.100098 0.5,-1.5 1.5,-1l4.5,2.899902c0.899902,0.700195 0.800293,1.5 -0.299805,1.799805z" fill="#FFCE01"/>
      <path stroke="null" id="svg_67" d="m5860.038574,4072.996826l2.600098,-8.800293c2.799805,-0.100098 5.399902,0.200195 8.100098,0.5l-2.399902,8.200195c-4.800293,-0.200195 -8.300293,0.100098 -8.300293,0.100098z" fill="#FFCE01"/>
      <polygon stroke="null" id="svg_68" points="5882.838874936104,4059.796630859375 5882.838874936104,4065.196533203125 5875.838874936104,4064.096435546875 5875.838874936104,4059.796630859375 " fill="#FFCE01"/>
      <path stroke="null" id="svg_69" d="m5946.73877,4059.796631l-16.5,0c0,0 -9.600098,9.299805 -28.600098,9.100098c-12.700195,-0.200195 -20.899902,-2.300293 -28.299805,-3.600098l-2.300293,7.899902c2.899902,0.200195 6,0.600098 9,1.300293c9.399902,2.299805 19.300293,4.799805 27.5,4.5c8.300293,-0.200195 25.300293,-2.200195 39.200195,-19.200195zm-38.899902,17l-4,0.200195c-0.800293,0 -1.100098,-0.5 -0.600098,-1.200195c0,0 0.699707,-0.899902 2.399902,-1c1.799805,-0.200195 2.700195,0.700195 2.700195,0.700195c0.599609,0.699707 0.399902,1.199707 -0.5,1.299805zm9.099609,-0.899902l-4.299805,0.699707c-0.899902,0.100098 -1.299805,-0.399902 -0.799805,-1.199707c0,0 0.699707,-1.100098 2.5,-1.399902c1.899902,-0.300293 3,0.5 3,0.5c0.699707,0.599609 0.5,1.299805 -0.400391,1.399902zm8.900391,-2.700195l-4.5,1.700195c-1,0.299805 -1.5,-0.200195 -1.100098,-1.200195c0,0 0.5,-1.299805 2.399902,-2c2,-0.799805 3.299805,-0.100098 3.299805,-0.100098c0.900391,0.5 0.900391,1.200195 -0.099609,1.600098zm9.199707,-5.199707l-4.5,2.899902c-1,0.600098 -1.600098,0.100098 -1.5,-1c0,0 0.200195,-1.5 2.100098,-2.800293c2,-1.299805 3.600098,-0.899902 3.600098,-0.899902c1.100098,0.399902 1.199707,1.200195 0.299805,1.800293z" fill="#FFCE01"/>
     </g>
     <path stroke="null" id="svg_71" d="m146.278595,67.227493c0,-1.680984 1.285324,-2.867088 2.866928,-2.867088c1.58223,0 2.867554,1.186104 2.867554,2.867088c0,1.680809 -1.285324,2.867249 -2.867554,2.867249c-1.48317,0 -2.866928,-1.18644 -2.866928,-2.867249zm2.965988,2.372688c1.285324,0 2.273773,-0.988457 2.273773,-2.372688c0,-1.384094 -0.988449,-2.372864 -2.273773,-2.372864c-1.285339,0 -2.372864,0.98877 -2.372864,2.372864c0,1.384232 1.087524,2.372688 2.372864,2.372688zm-0.593155,-0.691879l-0.494385,0l0,-3.262566l1.285339,0c0.790634,0 1.186264,0.29641 1.186264,0.889542c0,0.593452 -0.39563,0.89003 -0.889999,0.89003l0.889999,1.482994l-0.593109,0l-0.890015,-1.384247l-0.593155,0l0,1.384247l0.09906,0zm0.593155,-1.878799c0.395325,0 0.790955,0 0.790955,-0.494225c0,-0.395317 -0.39563,-0.494217 -0.692215,-0.494217l-0.691895,0l0,0.988441l0.593155,0z" fill="#003768"/>
    </g>
   </g>
  </g>
 </g>
</svg>