<?xml version="1.0" encoding="UTF-8"?>
<svg width="106px" height="48px" viewBox="0 0 106 48" version="1.1" xmlns="http://www.w3.org/2000/svg" xmlns:xlink="http://www.w3.org/1999/xlink">
    <!-- Generator: Sketch 59.1 (86144) - https://sketch.com -->
    <title>logo</title>
    <desc>Created with Sketch.</desc>
    <g id="Symbols" stroke="none" stroke-width="1" fill="none" fill-rule="evenodd">
        <g id="logo/dark" fill="#333333" fill-rule="nonzero">
            <g id="logo">
                <g id="Group" transform="translate(52.602740, 24.000000) scale(-1, 1) rotate(-180.000000) translate(-52.602740, -24.000000) ">
                    <g>
                        <path d="M103.343088,35.6028571 C103.606541,35.6028571 103.826085,35.6248352 103.826085,35.9325275 C103.826085,36.1962637 103.606541,36.2402198 103.386997,36.2402198 L102.947909,36.2402198 L102.947909,35.6028571 L103.343088,35.6028571 Z M102.947909,34.46 L102.640547,34.46 L102.640547,36.481978 L103.408951,36.481978 C103.891948,36.481978 104.111492,36.3061538 104.111492,35.8885714 C104.111492,35.5369231 103.891948,35.3610989 103.584586,35.3391209 L104.177355,34.46 L103.869993,34.46 L103.321133,35.3391209 L102.969863,35.3391209 L102.969863,34.46 L102.947909,34.46 Z M103.343088,33.9984615 C104.133446,33.9984615 104.770124,34.6358242 104.770124,35.470989 C104.770124,36.3061538 104.133446,36.9435165 103.343088,36.9435165 C102.530775,36.9435165 101.894097,36.3061538 101.894097,35.470989 C101.916052,34.6358242 102.530775,33.9984615 103.343088,33.9984615 M101.564781,35.470989 C101.564781,36.481978 102.377094,37.2292308 103.365042,37.2292308 C104.331036,37.2292308 105.143349,36.503956 105.143349,35.470989 C105.143349,34.438022 104.331036,33.6907692 103.365042,33.6907692 C102.377094,33.7127473 101.564781,34.46 101.564781,35.470989 M26.5531868,23.9912088 C26.5531868,30.3208791 28.1339035,35.5296703 31.6685618,39.6395604 L31.6685618,42.2769231 C31.6685618,42.7824176 31.7783338,43.156044 31.9759233,43.4197802 C32.1735129,43.6835165 32.5686921,43.9032967 33.0955977,44.0571429 L33.0955977,44.8483516 L24.1162485,44.8483516 L24.1162485,44.0571429 C24.6431541,43.9032967 25.0383333,43.6835165 25.2359229,43.4197802 C25.4335125,43.156044 25.5432845,42.7604396 25.5432845,42.2549451 L25.5432845,25.5516484 C25.5432845,23.6175824 25.4335125,22.210989 25.2578773,21.2659341 C25.0602877,20.3428571 24.7090173,19.5736264 24.2040661,18.9582418 C22.7770302,17.2879121 20.3181375,16.4527473 16.8493425,16.4527473 C13.4025019,16.4527473 10.9436092,17.2879121 9.51657328,18.9582418 C8.98966771,19.5736264 8.59448853,20.3648352 8.41885334,21.2659341 C8.22126375,22.189011 8.13344615,23.6175824 8.13344615,25.5516484 L8.13344615,42.2769231 C8.13344615,42.7824176 8.24321815,43.156044 8.46276214,43.4417582 C8.68230613,43.7274725 9.05553091,43.9252747 9.58243648,44.0791209 L9.58243648,44.8703297 L0.0542273652,44.8703297 L0.0542273652,44.0791209 C0.581132938,43.9252747 0.976312118,43.7054945 1.17390171,43.4417582 C1.3714913,43.178022 1.48126329,42.8043956 1.48126329,42.2989011 L1.48126329,23.5296703 C1.48126329,21.178022 1.76667048,19.1340659 2.33748485,17.4417582 C2.93025362,15.7054945 3.96211037,14.3648352 5.45500949,13.3538462 C8.04562856,11.6175824 11.7339676,10.7604396 16.6078441,10.7604396 C21.9208087,10.7604396 25.8067373,11.7494505 28.2436755,13.7274725 C26.948366,16.7604396 26.5531868,20.189011 26.5531868,23.9912088 M102.77886,26.0406593 C102.998404,26.3263736 103.415537,26.5241758 103.986352,26.7 L103.986352,27.4912088 L88.0694125,27.4912088 C87.5644613,27.4912088 87.1912365,27.6230769 86.9277837,27.8428571 C86.664331,28.0626374 86.4667414,28.5021978 86.2911062,29.1395604 L85.5007478,29.1395604 L85.5007478,21.0076923 L86.2911062,21.0076923 C86.444787,21.6230769 86.664331,22.0406593 86.9277837,22.2824176 C87.1912365,22.5021978 87.5644613,22.6340659 88.0694125,22.6340659 L96.3901297,22.6340659 L96.3901297,17.9087912 C96.3901297,17.9087912 94.8972305,14.9637363 85.347067,14.4802198 C79.6828321,14.1725275 76.1042651,16.7659341 76.1042651,16.7659341 C76.0823107,16.6120879 76.0823107,16.7 76.0823107,16.5461538 L76.0823107,10.0626374 C76.0823107,10.0626374 79.1339721,8.63406593 85.5227022,8.63406593 C91.5162531,8.63406593 98.3221168,10.3923077 104.052215,15.2494505 L104.052215,15.8868132 C103.437492,16.0626374 103.042313,16.2604396 102.800814,16.5461538 C102.559316,16.8318681 102.471498,17.2054945 102.471498,17.732967 L102.471498,24.8538462 C102.427589,25.3813187 102.559316,25.7769231 102.77886,26.0406593 M77.1361218,36.5241758 C79.4413337,38.5461538 82.3612688,39.5791209 85.8520182,39.5791209 C87.5864157,39.5791209 89.4086308,39.2934066 91.3186635,38.7659341 C93.2506506,38.2164835 94.7215954,37.5571429 95.7314977,36.7879121 C96.1925401,36.4362637 96.4999017,36.1285714 96.6096737,35.9087912 C96.7414001,35.6450549 96.8072632,35.2714286 96.8292176,34.721978 L97.5317584,34.3483516 L101.461596,42.656044 L100.781009,43.0296703 C100.319967,42.656044 99.9247879,42.4362637 99.5735175,42.4362637 C99.0905207,42.4362637 98.3001624,42.656044 97.180488,43.1175824 C95.0289569,43.9747253 93.0969698,44.5901099 91.4064811,44.9637363 C89.7159924,45.3373626 87.9157317,45.4252747 85.9837446,45.5131868 C78.7607474,45.8648352 74.940682,43.6010989 74.940682,43.6010989 L69.4301278,31.732967 L67.1468704,32.4802198 C67.1468704,32.4802198 67.124916,33.6010989 66.9712352,33.667033 C66.4443296,33.2054945 66.0052416,30.7659341 65.8515608,27.5791209 C65.8296064,26.8758242 65.9613328,24.8978022 65.9613328,24.8978022 L73.2062844,24.8978022 C73.2062844,24.8978022 73.0306493,26.4802198 73.0306493,27.4692308 C73.0965125,31.2054945 74.5235484,34.2164835 77.1361218,36.5241758" id="Shape"></path>
                        <path d="M67.1282091,17.4751648 L56.4583713,17.4751648 C55.7997393,17.4751648 55.3167425,17.3213187 54.9874265,16.9916484 C54.6581105,16.661978 54.3727034,16.1125275 54.1751138,15.2993407 L53.1652114,15.2993407 L53.1652114,26.1345055 L54.1751138,26.1345055 C54.3727034,25.2993407 54.6581105,24.7059341 54.9874265,24.3982418 C55.3167425,24.0905495 55.7997393,23.9367033 56.4583713,23.9367033 L76.919871,23.9367033 L76.919871,22.8817582 C76.1514671,22.661978 75.6465159,22.3542857 75.3391543,22.0026374 C75.0317927,21.650989 74.8781119,21.1235165 74.8781119,20.3982418 L74.8781119,10.8817582 C74.8781119,10.1784615 75.0317927,9.62901099 75.3171999,9.27736264 C75.6245615,8.92571429 76.1295127,8.61802198 76.919871,8.39824176 L76.919871,7.58505495 C68.7308802,2.55208791 60.8053422,0.0465934066 53.1213026,0.0465934066 C46.1398038,0.0465934066 40.4755689,1.82681319 36.0627347,5.36527473 C30.5302262,9.82681319 27.7420175,16.0465934 27.7420175,24.0246154 C27.7420175,31.4312088 30.2009102,37.3213187 35.1406499,41.7169231 C39.7949825,45.8707692 46.0080774,47.9586813 53.7799346,47.9586813 C56.2388273,47.9586813 58.5659936,47.6949451 60.7614334,47.2334066 C62.9349189,46.7498901 65.415766,45.9367033 68.1820203,44.7718681 C69.6090562,44.1564835 70.8604569,43.7389011 71.4751801,43.7389011 C71.9142681,43.7389011 72.4411736,44.0026374 73.011988,44.5301099 L73.890164,44.0246154 L68.9065154,33.0356044 L67.9405219,33.4092308 C67.9185675,34.1345055 67.5892515,34.8158242 67.4355707,35.1454945 C67.2599355,35.4751648 66.8867107,35.8707692 66.293942,36.3323077 C64.9986324,37.3652747 63.1325085,38.2663736 60.629707,38.9696703 C58.14886,39.6949451 55.7777849,40.0685714 53.582345,40.0685714 C49.0597388,40.0685714 45.3494454,38.7279121 42.3416928,36.0026374 C39.0046241,32.9257143 37.3141354,28.8817582 37.3141354,23.8487912 C37.3141354,18.9696703 38.9387609,15.0356044 42.2099664,12.0246154 C45.1957646,9.25538462 49.1475564,7.89274725 54.0433874,7.89274725 C56.4364169,7.89274725 58.7855375,8.20043956 61.0907494,8.77186813 C63.3959613,9.38725275 65.3938116,10.2004396 67.1062547,11.2114286 L67.1062547,17.4751648 L67.1282091,17.4751648 Z" id="Path"></path>
                    </g>
                </g>
            </g>
        </g>
    </g>
</svg>